<svg xmlns="http://www.w3.org/2000/svg" width="128" height="128" viewBox="0 0 128 128"><ellipse cx="64" cy="112" rx="39" ry="10" fill="#182f3330"/><path d="M14 111Q1 72 32 54Q30 23 63 21Q101 21 99 56Q126 79 116 112Z" fill="#65b4ab" stroke="#336e73" stroke-width="3" stroke-linejoin="round" stroke-linecap="round"/><path d="M23 89Q19 65 47 63Q38 39 62 35Q54 58 65 74Z" fill="#b1dfcc99"/><path d="M31 33L21 9 46 19 63 2 82 18 107 10 98 36Z" fill="#c6b77b" stroke="#72846b" stroke-width="3" stroke-linejoin="round" stroke-linecap="round"/><path d="M39 73L55 78M76 78L92 72" fill="none" stroke="#275b60" stroke-width="5" stroke-linejoin="round" stroke-linecap="round"/><path d="M57 96L73 96" fill="none" stroke="#34676a" stroke-width="3" stroke-linejoin="round" stroke-linecap="round"/><path d="M21 107Q47 95 68 108Q91 114 107 104" fill="none" stroke="#b5d6b3" stroke-width="3" stroke-linejoin="round" stroke-linecap="round"/></svg>